<?xml version="1.0" encoding="utf-8"?>
<!-- Generator: Adobe Illustrator 26.5.0, SVG Export Plug-In . SVG Version: 6.00 Build 0)  -->
<svg version="1.1" id="Layer_1" xmlns="http://www.w3.org/2000/svg" xmlns:xlink="http://www.w3.org/1999/xlink" x="0px" y="0px"
	 viewBox="0 0 1500 1500" style="enable-background:new 0 0 1500 1500;" xml:space="preserve">
<style type="text/css">
	.st0{clip-path:url(#SVGID_00000033367160829843450140000015424467607125205411_);}
	.st1{fill:#FFFFFF;}
	.st2{fill:#FFFFFF;fill-opacity:0.5373;}
</style>
<g>
	<defs>
		<rect id="SVGID_1_" x="35.5" y="103.3" width="1428.9" height="1293.4"/>
	</defs>
	<use xlink:href="#SVGID_1_"  style="overflow:visible;fill:#FFFFFF;"/>
	<clipPath id="SVGID_00000021831932821570649550000008619417087363545992_">
		<use xlink:href="#SVGID_1_"  style="overflow:visible;"/>
	</clipPath>
	<g style="clip-path:url(#SVGID_00000021831932821570649550000008619417087363545992_);">
		<g>
			<g id="g8" transform="translate(13.691, 156.321)">
				<path id="path10" class="st1" d="M-392.8-80.1H646.6v1099.3H-392.8V-80.1z"/>
			</g>
			<g id="g19" transform="translate(15.384, 158.012)">
				<path id="path21" class="st1" d="M214,60.6c-16.3,14.5-21.6,29.5-19.7,43.7c1.9,14.2,10.2,27.1,18.3,40.1
					c8.2,13,16.4,26.1,19.9,39.5c3.4,13.4,2.5,27-8.4,43.2c-10.6,15.7-22.5,21.3-35.9,22.8c-13.5,1.5-28.5-1.8-43.4-4.9
					c-14.9-3.1-29.7-6.1-43.3-2.9c-13.6,3.1-25.3,13.2-32.1,33.4c-6.9,20.7-3.9,36.3,4.9,47.6c8.8,11.3,22.3,18.5,35.9,25.7
					c13.6,7.2,27.3,14.3,37,24.2c9.7,9.9,15.7,22.1,14.3,41.6c-1.3,18.9-8.9,29.8-19.8,37.8c-10.9,8-25.5,12.7-40,17.5
					c-14.4,4.8-28.8,9.6-39,19.1c-10.2,9.5-15.3,24.1-11.1,44.9c4.4,21.4,14.8,33.4,28.1,38.8c13.3,5.4,28.5,4.9,43.8,4.3
					c15.3-0.6,30.8-1.3,44.1,2.4c13.3,3.7,24.7,11.4,33.3,29c8.3,17,7.2,30.1,1.7,42.5c-5.5,12.4-15.7,23.9-25.8,35.3
					c-10.1,11.4-20.3,22.7-24.4,36c-4.1,13.4-1.1,28.5,13,44.5c14.5,16.3,29.4,21.5,43.6,19.6c14.2-1.9,27.1-10.2,40.1-18.3
					c13-8.2,26.1-16.4,39.5-19.9c13.4-3.4,27-2.5,43.2,8.4c15.7,10.6,21.3,22.5,22.8,35.9c1.5,13.5-1.6,28.6-4.7,43.5
					c-3.1,14.9-6.2,29.6-3.1,43.3c3.1,13.6,13.3,25.4,33.5,32.1c20.7,6.9,36.3,3.9,47.6-4.9c11.3-8.8,18.5-22.4,25.6-36
					c7.2-13.6,14.3-27.3,24.2-37c9.9-9.7,22.2-15.6,41.7-14.3c18.9,1.3,29.7,8.8,37.7,19.7c8,10.9,12.7,25.5,17.5,40
					c4.8,14.4,9.6,28.8,19.1,39c9.5,10.2,24.2,15.4,45,11.1c21.4-4.4,33.4-14.8,38.8-28.1c5.4-13.3,4.8-28.6,4.2-43.9
					c-0.6-15.3-1.3-30.8,2.4-44.1c3.7-13.3,11.4-24.7,29-33.3c17-8.3,30.1-7.1,42.5-1.7c12.4,5.5,23.9,15.7,35.3,25.8
					c11.4,10.1,22.6,20.2,36,24.3c13.4,4.1,28.6,1.2,44.5-12.9c16.3-14.5,21.5-29.5,19.5-43.7c-1.9-14.2-10.1-27.2-18.2-40.2
					c-8.2-13-16.5-26-19.9-39.4c-3.4-13.4-2.5-27,8.4-43.2c10.6-15.7,22.5-21.2,36-22.7c13.5-1.5,28.6,1.6,43.5,4.7
					c14.9,3.1,29.7,6.1,43.3,2.9c13.6-3.1,25.3-13.2,32.1-33.4c6.9-20.7,3.9-36.3-4.9-47.6c-8.8-11.3-22.3-18.4-35.9-25.6
					c-13.6-7.2-27.4-14.4-37-24.2c-9.7-9.9-15.6-22.2-14.3-41.7c1.3-18.9,8.9-29.6,19.8-37.6c10.9-8,25.5-12.8,39.9-17.6
					c14.4-4.8,28.8-9.6,39-19.1c10.2-9.5,15.4-24.2,11.1-45c-4.4-21.4-14.8-33.4-28.1-38.8c-13.3-5.4-28.6-4.8-43.9-4.2
					c-15.3,0.6-30.8,1.3-44.1-2.4c-13.3-3.7-24.7-11.4-33.3-29c-8.3-17-7.1-30.1-1.7-42.5c5.5-12.4,15.7-23.9,25.8-35.3
					c10.1-11.4,20.2-22.6,24.3-36c4.1-13.4,1.2-28.5-12.9-44.4c-14.5-16.3-29.6-21.6-43.8-19.6s-27.1,10.2-40.1,18.3
					c-13,8.2-26.1,16.4-39.5,19.9c-13.4,3.4-27,2.5-43.2-8.4c-15.7-10.6-21.2-22.5-22.7-36c-1.5-13.5,1.7-28.5,4.8-43.4
					s6.1-29.7,3-43.3c-3.1-13.6-13.4-25.3-33.5-32.1c-20.7-6.9-36.2-3.8-47.6,5C646.1-21.8,639-8.3,631.8,5.2s-14.4,27.4-24.2,37
					C597.7,52,585.5,58,566,56.6c-18.9-1.3-29.7-9-37.7-19.9c-8-10.9-12.8-25.5-17.6-39.9c-4.8-14.4-9.5-28.8-19-39.1
					c-9.5-10.2-24.2-15.2-45-11c-21.4,4.4-33.4,14.7-38.8,27.9c-5.4,13.3-4.9,28.6-4.3,44c0.6,15.3,1.3,30.8-2.4,44.1
					c-3.7,13.3-11.4,24.7-29,33.3c-17,8.3-30.1,7.1-42.5,1.7c-12.4-5.5-23.7-15.7-35.1-25.8c-11.4-10.1-22.8-20.2-36.1-24.3
					C245,43.6,229.9,46.5,214,60.6z M220.4,67.9c14.3-12.6,24.8-14.1,35.2-10.9c10.4,3.2,21,12.2,32.3,22.2
					c11.3,10.1,23.4,21.1,37.8,27.5c14.4,6.4,31.5,7.6,50.7-1.8c19.7-9.6,29.7-24,34-39.4c4.3-15.4,3.4-31.8,2.8-47
					c-0.6-15.3-0.8-29.4,3.5-39.9c4.3-10.5,12.5-18.3,31.7-22.2c18.7-3.8,28.5,0.2,36,8.2c7.4,8,12.2,21.1,17,35.5
					c4.8,14.4,9.6,29.9,19,42.6c9.3,12.7,23.5,22.3,44.9,23.8c21.9,1.5,37.7-5.9,49.1-17.1c11.4-11.2,18.8-25.9,26-39.4
					c7.1-13.5,14-25.8,23-32.8c9-7,20-9.6,38.7-3.4c18.1,6,24.6,14.4,27,25.1c2.4,10.7,0,24.3-3.1,39.1c-3.1,14.8-6.6,30.8-4.9,46.5
					c1.7,15.7,9.3,31,27,43c18.2,12.2,35.5,13.8,51,9.8c15.5-4,29.4-13,42.3-21.1c12.9-8.1,25-15.3,36.2-16.9
					c11.3-1.5,22.1,1.7,35.1,16.5c12.6,14.3,14.1,24.8,10.9,35.2c-3.2,10.4-12.2,21-22.2,32.3c-10.1,11.3-21.1,23.4-27.5,37.8
					c-6.4,14.4-7.6,31.5,1.8,50.7c9.6,19.7,24,29.7,39.4,34c15.4,4.3,31.9,3.4,47.1,2.8c15.3-0.6,29.3-0.7,39.8,3.6
					c10.5,4.3,18.3,12.5,22.2,31.7c3.8,18.7-0.2,28.5-8.2,36c-8,7.4-21.1,12.2-35.5,17c-14.4,4.8-29.9,9.6-42.6,19
					c-12.7,9.3-22.2,23.5-23.7,44.8c-1.5,21.9,5.8,37.8,17,49.2c11.2,11.4,25.9,18.8,39.4,26s25.8,14,32.8,23c7,9,9.6,19.9,3.3,38.6
					c-6,18.1-14.3,24.7-25,27.1c-10.7,2.4-24.4-0.1-39.2-3.1c-14.8-3.1-30.7-6.5-46.4-4.8c-15.7,1.7-31,9.3-43,27
					c-12.2,18.2-13.8,35.5-9.8,51c4,15.5,13.1,29.3,21.2,42.2c8.1,12.9,15.3,25,16.8,36.3c1.5,11.3-1.7,22-16.4,35.1
					c-14.3,12.6-24.8,14.1-35.2,10.9s-21.1-12.1-32.4-22.2c-11.3-10.1-23.4-21.1-37.8-27.5c-14.4-6.4-31.5-7.6-50.7,1.8
					c-19.7,9.6-29.7,24-34,39.4c-4.3,15.4-3.4,31.9-2.8,47.1c0.6,15.3,0.7,29.3-3.6,39.8c-4.3,10.5-12.5,18.3-31.7,22.2
					c-18.7,3.8-28.5-0.2-36-8.2c-7.4-8-12.2-21.1-17-35.5c-4.8-14.4-9.6-29.9-19-42.6c-9.3-12.7-23.5-22.2-44.8-23.7
					c-21.9-1.5-37.8,5.8-49.2,17c-11.4,11.2-18.8,25.9-26,39.4c-7.1,13.5-14,25.8-23,32.8c-9,7-19.9,9.6-38.6,3.3
					c-18.1-6-24.6-14.4-27-25.1c-2.4-10.7,0-24.3,3.1-39.1c3.1-14.8,6.5-30.7,4.8-46.4c-1.7-15.7-9.2-31.1-26.9-43
					c-18.2-12.2-35.6-13.7-51.1-9.7c-15.5,4-29.3,12.9-42.2,21.1c-12.9,8.1-25,15.4-36.3,17c-11.3,1.5-22.1-1.7-35.1-16.5
					c-12.6-14.3-14-24.7-10.8-35.1c3.2-10.4,12.1-21.1,22.2-32.4c10.1-11.3,21.1-23.4,27.5-37.8c6.4-14.4,7.6-31.5-1.8-50.7
					c-9.6-19.7-24-29.7-39.4-34c-15.4-4.3-31.8-3.4-47-2.8c-15.3,0.6-29.4,0.8-39.9-3.5c-10.5-4.3-18.3-12.5-22.2-31.7
					c-3.8-18.7,0.2-28.5,8.2-36c8-7.4,21.1-12.2,35.5-17c14.4-4.8,29.9-9.6,42.6-19c12.7-9.3,22.3-23.5,23.8-44.9
					c1.5-21.9-5.9-37.7-17.1-49.1c-11.2-11.4-25.9-18.8-39.4-26c-13.5-7.1-25.8-14-32.8-23c-7-9-9.6-19.9-3.3-38.6
					c6-18.1,14.3-24.7,25-27.1c10.7-2.4,24.4,0.1,39.2,3.1c14.8,3.1,30.7,6.5,46.4,4.8c15.7-1.7,31.1-9.2,43-26.9
					c12.2-18.2,13.7-35.6,9.7-51.1c-4-15.5-12.9-29.3-21.1-42.2c-8.1-12.9-15.4-25-17-36.3C202.4,91.7,205.6,80.9,220.4,67.9z"/>
			</g>
			<g id="g34" transform="translate(46.995, 201.855)">
				<path id="path36" class="st1" d="M535,528.4c-36.2,12.8-56.1,40.6-60.7,74.6c-4.5,34,5.7,74.1,29.5,113.3l8.6-5.4
					c-22.9-37.7-32.6-75.3-28.4-106.3c4.1-31,21.5-55.3,54.8-67.1L535,528.4z"/>
			</g>
			<g id="g53" transform="translate(48.319, 210.375)">
				<path id="path55" class="st1" d="M495.6,642.3l-8.1,4.8c41.7,66.2,122.9,90.9,203.4,87.5c80.5-3.5,160.7-34.5,201.8-82.1l-7-6.4
					c-38.4,44.4-116.6,75.6-194.8,78.9C612.7,728.3,534.7,704.6,495.6,642.3z"/>
			</g>
			<g id="g66" transform="translate(46.957, 203.048)">
				<path id="path68" class="st1" d="M540.4,544.4c-44.6,6.9-67.2,43.7-69.8,78.4c-1.3,17.3,2.1,34.3,10.2,47.2
					c8.1,13,21.3,22.2,38.1,22v-9.7c-13.5,0.2-23.4-6.4-30.1-17.2c-6.7-10.7-9.8-25.8-8.6-41.3c2.4-31.1,21.2-63.6,61.2-69.8
					L540.4,544.4z"/>
			</g>
			<g id="g81" transform="translate(47.9, 203.087)">
				<path id="path83" class="st1" d="M538.4,544.9c-36.5,12.9-53,43.2-54.8,73c-1.7,29.8,10.2,59.5,31.7,73l5.4-8.1
					c-17.2-10.9-28.9-37.7-27.4-64.4c1.5-26.7,15.4-52.7,48.3-64.4L538.4,544.9z"/>
			</g>
			<g id="g98" transform="translate(46.47, 201.704)">
				<path id="path100" class="st1" d="M546.3,526.4c-26.6,0.5-49.1,17-63.3,40.3c-14.2,23.3-20.1,53.4-12.9,81.6
					c14.8,57.8,53.3,91.5,99.8,126.7l5.9-7.5c-46.2-34.9-82.6-66.5-96.6-121.3c-6.5-25.4-1.1-53,11.8-74.1
					c12.9-21.1,33.2-35.5,55.8-36L546.3,526.4z"/>
			</g>
			<g id="g117" transform="translate(48.581, 210)">
				<path id="path119" class="st1" d="M499.6,637.3l-8.6,4.8c41.7,66.2,123.2,90.4,200.2,87c77-3.5,150.8-34,179.3-81.1l-8.6-4.8
					c-25.5,42.2-96.5,72.9-171.2,76.2C616,722.8,538.8,699.6,499.6,637.3z"/>
			</g>
			<g id="g136" transform="translate(41.779, 207.273)">
				<path id="path138" class="st1" d="M405.5,600.8l-5.4,8.1c113.5,75.6,211.8,115.3,302.2,117c90.4,1.8,172.4-34.5,251.2-107.9
					l-7-7C869,683.3,790.5,718,702.8,716.3C615.1,714.5,518.1,675.8,405.5,600.8z"/>
			</g>
			<g id="g153" transform="translate(49.104, 212.168)">
				<path id="path155" class="st1" d="M852.8,666.3c-39.6,20-100.8,36-165.3,39.7c-64.5,3.7-132.5-5.2-185.2-33.8l-4.3,8.6
					c55,29.9,124.3,38.7,190,34.9c65.7-3.8,127.8-19.9,169.1-40.8L852.8,666.3z"/>
			</g>
			<g id="g172" transform="translate(48.73, 210.672)">
				<path id="path174" class="st1" d="M500,646.3l-7,7c62.8,65.1,129.6,83,198.6,77.8c69-5.2,140.7-32.7,215.2-58.5l-3.2-9.1
					c-74.8,25.9-145.6,53-212.6,58C624.1,726.4,561,709.6,500,646.3z"/>
			</g>
			<g id="g187" transform="translate(44.283, 165.905)">
				<path id="path189" class="st1" d="M433.6,48v9.7c210.9,8,349.4,107.9,404.7,235.1c55.3,127.2,27.3,281.9-98.2,401l7,7
					C875.1,579.2,904.4,419.9,847.4,289C790.5,158.1,647.4,56.1,433.6,48z"/>
			</g>
			<g id="g202" transform="translate(76.421, 210.076)">
				<path id="path204" class="st1" d="M875.4,638.3l-3.8,8.6c33,14.2,52.2,55.3,52.1,97.2c-0.1,41.8-18.7,83.5-60.7,100.4l3.2,9.1
					c46.1-18.5,67-64.7,67.1-109.5C933.5,699.2,913.2,654.6,875.4,638.3z"/>
			</g>
			<g id="g215" transform="translate(76.944, 210.898)">
				<path id="path217" class="st1" d="M875.9,649.3l-1.6,9.7c42.8,8.1,65.7,48.3,66,91.8c0.4,43.5-22.1,89.1-70.3,107.9l3.2,9.1
					c52.2-20.4,77.2-70.6,76.8-117.6C949.6,703.3,923.9,658.3,875.9,649.3z"/>
			</g>
			<g id="g226" transform="translate(76.944, 209.851)">
				<path id="path228" class="st1" d="M891,635.3l-3.2,9.1c16.7,5.5,30,19.3,39.2,37.6c9.2,18.2,13.9,41,13.4,64.4
					c-0.9,46.7-22.2,94.5-70.3,113.3l3.2,9.1c52.4-20.4,75.8-72.7,76.8-122.4c0.5-24.8-4.5-49.3-14.5-69.2
					C925.5,657.3,910.7,641.7,891,635.3z"/>
			</g>
			<g id="g245" transform="translate(76.72, 208.393)">
				<path id="path247" class="st1" d="M890.7,615.8l-5.9,7.5c23.9,17.4,43.8,60.6,45.1,109.5c1.3,48.9-15.1,103.4-62.8,145.5l6.4,7
					c49.9-44.1,67.4-101.7,66-153C938.1,681,918.4,636.1,890.7,615.8z"/>
			</g>
			<g id="g260" transform="translate(71.413, 207.946)">
				<path id="path262" class="st1" d="M806.3,609.8v9.7c33.8,0.6,70.9,20.9,96.6,49.9c25.7,29.1,40,65.9,30.6,98.8
					c-10.2,35.8-27.3,53.8-50.5,69.2c-23.1,15.5-52.9,28.4-87,51.5l5.4,7.5c33.2-22.5,62.7-34.8,87-51
					c24.3-16.2,43.5-36.9,54.2-74.6c10.6-37.1-5.5-77.1-32.7-107.9C882.7,632.2,843.9,610.5,806.3,609.8z"/>
			</g>
			<g id="g279" transform="translate(46.189, 222.78)">
				<path id="path281" class="st1" d="M957.7,808.1c-121,47.4-230.2,67.2-316.2,67.6c-86,0.5-148.2-18.7-175-47.2l-7.5,6.4
					c30.3,32.3,95.1,50.9,182.5,50.5c87.4-0.5,198-20.4,319.9-68.2L957.7,808.1z"/>
			</g>
			<g id="g298" transform="translate(47.011, 223.641)">
				<path id="path300" class="st1" d="M475.9,819.6l-5.9,8.1c41.3,31.1,117.4,46.2,197.5,47.2c80.1,1,163.9-12.5,220.6-41.3
					l-4.3-8.6c-54.3,27.6-137.4,41.3-216.3,40.3C588.6,864.2,513.7,848.1,475.9,819.6z"/>
			</g>
			<g id="g317" transform="translate(73.244, 200.696)">
				<path id="path319" class="st1" d="M827.6,513l-3.2,9.1c7,2.3,18,12.5,27.4,27.4c9.4,14.8,17.6,34.1,21.5,54.8
					c3.9,20.6,3.4,42.4-4.3,62.3c-7.7,19.8-22.8,38-48.3,51.5l4.8,8.6c27.3-14.5,44.1-34.5,52.6-56.4c8.5-21.9,8.4-45.7,4.3-67.6
					c-4.1-22-12.5-42.6-22.5-58.5C849.7,528.2,838.8,516.7,827.6,513z"/>
			</g>
			<g id="g332" transform="translate(59.754, 169.828)">
				<path id="path334" class="st1" d="M643,100.4l-2.7,9.1c74.9,19.3,144,82.9,182.5,163.2c38.5,80.3,46.3,176.9,1.1,263l8.6,4.8
					c46.9-89.2,38.5-189.6-1.1-272.1C791.8,185.9,721.4,120.7,643,100.4z"/>
			</g>
			<g id="g347" transform="translate(58.334, 170.127)">
				<path id="path349" class="st1" d="M623.5,104.4l-2.1,9.1c91.8,18.9,155.7,59.7,190.6,134.7c34.9,75,40.4,185.3,12.9,343l9.7,1.6
					c27.7-158.6,22.3-271-14-348.9C784.3,166.1,717.1,123.8,623.5,104.4z"/>
			</g>
			<g id="g360" transform="translate(52.729, 175.821)">
				<path id="path362" class="st1" d="M559.9,183l1.6,9.1c14.1-2.3,22-0.2,26.3,2.7c4.3,2.9,5.4,7.2,5.4,10.7
					c0,8.5-2.3,13.2-9.7,16.1c-3,1.2-8.8,2.1-14.5,1.1c-5.7-1-11.2-3.7-15.6-8.1l-7,7c6.1,6,13.7,8.9,20.9,10.2s14.5,1.1,19.9-1.1
					c10.8-4.3,15.6-14.2,15.6-25.2c0-6.2-2.6-14-9.7-18.8C586,182,575.5,180.5,559.9,183z"/>
			</g>
			<g id="g379" transform="translate(44.47, 222.071)">
				<path id="path381" class="st1" d="M442,798.6l-5.9,7.5c41.4,31.2,139.3,59.2,239.9,67.6c100.7,8.5,204.1-2.6,255-55.8l-7-6.4
					c-46.7,48.9-147.5,61-246.9,52.6C577.7,855.7,479.6,827,442,798.6z"/>
			</g>
			<g id="g398" transform="translate(42.576, 211.002)">
				<path id="path400" class="st1" d="M478.2,650.8c-0.7,0.2-0.7,0.9-1.1,1.1c-0.7,0.4-1.6,0.6-2.1,1.1c-1.2,0.9-2.1,2.2-3.8,3.8
					c-3.2,3.1-7.6,7.6-12.3,13.4c-9.4,11.7-20.4,28.7-28.4,48.8c-16.2,40.3-19.7,94.6,30.1,145.5l7-7
					c-47.2-48.3-43.7-97.3-28.4-135.3c7.6-19,18.5-35,27.4-46.2c4.5-5.6,8.4-9.5,11.3-12.3c1.4-1.4,2.5-2.7,3.2-3.2
					c-0.3,0.1-0.4,0-1.1,0c-0.3,0-1.6,0-1.6,0c0,0-1.1-0.5-1.1-0.5l5.4-8c0,0-1.6-0.5-1.6-0.5s-0.7-0.5-1.1-0.5
					C479.1,650.8,478.6,650.7,478.2,650.8z"/>
			</g>
			<g id="g413" transform="translate(43.565, 213.23)">
				<path id="path415" class="st1" d="M483.7,681.3c-0.7,0.2-1.5,0.2-2.1,0.5c-1.4,0.6-2.9,1.6-4.8,2.7c-3.8,2.3-8.7,5.8-14,10.2
					c-10.4,8.7-22.4,21.1-29.5,37.6c-7.2,16.4-9.2,37,0,59c9.2,22,29.1,45.4,66,70.3l5.9-8.1c-35.9-24.2-55.1-46.4-63.3-66
					c-8.2-19.6-6.3-36.5,0-51c6.3-14.5,17.2-26.3,26.8-34.4c4.8-4,9.6-7.2,12.9-9.1c1.6-1,2.9-1.8,3.8-2.1c0.4-0.2,0.5-0.5,0.5-0.5
					c0,0,0,0.7-2.1,0l3.2-9.1C484.4,680.5,484.4,681.1,483.7,681.3z"/>
			</g>
			<g id="g428" transform="translate(43.742, 212.083)">
				<path id="path430" class="st1" d="M484,665.3c-0.7,0.2-1,0.8-1.6,1.1c-1.2,0.6-2.7,1.5-4.3,2.7c-3.1,2.3-6.9,5.2-11.3,9.7
					c-8.8,8.9-19.2,22.4-26.3,39.7c-14.2,34.6-14.2,85.3,37,144.9l7-6.4c-49.5-57.6-48.4-103.1-35.4-134.7
					c6.5-15.8,16.6-28.3,24.7-36.5c4.1-4.1,7.6-7.2,10.2-9.1c1.3-1,2.1-1.3,2.7-1.6c0.1-0.1-0.1-0.5,0-0.5c-0.3,0-0.6,0.1-1.1,0
					c-0.3,0-0.7,0.1-1.1,0c-0.3-0.1-1.1-0.5-1.1-0.5l5.4-8.1c0,0-0.7-0.4-1.1-0.5c-0.4-0.1-0.8,0-1.1,0c-0.6-0.1-0.7,0-1.1,0
					C485,665.3,484.4,665.1,484,665.3z"/>
			</g>
			<g id="g443" transform="translate(41.508, 170.613)">
				<path id="path445" class="st1" d="M557.1,110.9c-34.3,64.4-72.4,107.3-107.9,136.9c-17.6,14.7-33.6,33.4-42.4,54.7
					c-8.8,21.3-10.3,45.4,1.6,69.2l8.6-4.3c-10.7-21.3-9.6-41.8-1.6-61.2c8-19.3,23-37.6,39.7-51.5c36.4-30.3,75.2-74.1,110-139.6
					L557.1,110.9z"/>
			</g>
			<g id="g460" transform="translate(42.101, 169.754)">
				<path id="path462" class="st1" d="M546.3,99.5c-5,83.1-52.5,119.8-88.6,149.8c-17.8,14.8-34,36.5-42.9,60.1
					c-9,23.6-10.4,49.6,1.6,73.5l8.6-4.3c-10.6-21.1-9.4-44.2-1.1-66c8.3-21.8,23.7-42.1,40.3-55.8c35.9-29.9,86.5-70.1,91.8-156.7
					L546.3,99.5z"/>
			</g>
			<g id="g471" transform="translate(41.165, 184.394)">
				<path id="path473" class="st2" d="M511.6,295.1c-66.1,0-119.7,54-119.7,120.1s53.7,119.7,119.7,119.7
					c66.1,0,119.7-53.7,119.7-119.7S577.7,295.1,511.6,295.1z M511.6,305c60.8,0,110.2,49.3,110.2,110.2S572.5,525,511.6,525
					c-60.8,0-110.2-49-110.2-109.8S450.8,305,511.6,305z"/>
			</g>
			<g id="g486" transform="translate(46.338, 185.972)">
				<path id="path488" class="st1" d="M650.5,316.2c-17,13.1-31.3,13.5-38.6,14.5c-5.7,0.8-15.5-3.3-29-4.8
					c-13.4-1.5-30.9-0.1-52.1,11.8c-14.8,8.3-24.9,25.6-35.4,39.2c-5.2,6.8-10.2,12.3-15.6,16.1c-5.4,3.8-10.8,5.8-17.2,4.8
					l-1.6,9.7c9.1,1.4,17.3-1.6,24.2-6.4c6.8-4.8,12.8-11.2,18.3-18.3c10.9-14.2,21-30.2,32.2-36.5c19.6-11,34.2-12.1,46.2-10.7
					c12,1.4,21.1,6.2,31.1,4.8c5.6-0.7,24.3-1.8,43.5-16.6L650.5,316.2z"/>
			</g>
			<g id="g503" transform="translate(59.567, 170.501)">
				<path id="path505" class="st1" d="M641.6,109.4l-3.8,9.1c142.6,56.9,238,228.5,190,418.7l9.1,2.1
					C886,344.9,789,168.3,641.6,109.4z"/>
			</g>
			<g id="g522" transform="translate(46.039, 222.183)">
				<path id="path524" class="st1" d="M464,800.1l-7,6.4c59,62.9,236.1,142,518,16.6l-3.8-9.1C692.1,938.2,519.1,858.9,464,800.1z"
					/>
			</g>
			<g id="g537" transform="translate(59.605, 170.501)">
				<path id="path539" class="st1" d="M641,109.4l-2.7,9.1c75.4,19.4,134.2,67.1,169.1,144.9c34.9,77.9,46,186.2,24.7,326.4l9.7,1.6
					C863.2,450,852.5,340,816.5,259.7C780.5,179.5,718.9,129.5,641,109.4z"/>
			</g>
			<g id="g554" transform="translate(41.367, 169.268)">
				<path id="path556" class="st1" d="M549.7,93c-4.5,84-55.5,123.7-96.1,147.1c-24.8,14.3-46,42.2-54.2,70.3
					c-4.1,14-4.9,28.4-0.5,40.8c4.3,12.4,14.2,22.4,29.5,27.9l3.2-9.1c-13.1-4.7-20.2-12.2-23.6-22c-3.4-9.8-2.6-22.2,1.1-34.9
					c7.4-25.4,27.4-52.3,49.4-64.9c41.7-24,96.2-66.8,100.9-154.6L549.7,93z"/>
			</g>
			<g id="g573" transform="translate(41.718, 170.987)">
				<path id="path575" class="st1" d="M561.2,115.9c-28.7,82.2-88.2,95.3-122.4,131.5c-17.8,18.8-31.3,42.4-35.4,64.9
					c-4.1,22.6,2,45.3,23.6,57.4l4.8-8.6c-18.1-10.1-22.4-26.7-18.8-46.7c3.6-20,16.1-42.5,32.7-60.1c31-32.8,94.6-49.4,124.5-135.3
					L561.2,115.9z"/>
			</g>
			<g id="g588" transform="translate(44.806, 184.665)">
				<path id="path590" class="st1" d="M654.7,298.7c-8.8,6.8-19.5,13.9-29,19.3c-4.7,2.7-9.4,4.8-12.9,6.4c-3.5,1.6-6.2,2.7-6.4,2.7
					c-13.9,1.9-26.7-5.6-68.2,17.7c-14,7.9-27.2,21.9-42.4,31.7c-15.2,9.7-31.6,15.5-52.6,8.6l-2.7,9.1c24.1,8,44.2,0.9,60.7-9.7
					c16.5-10.5,29.9-24.4,41.9-31.1c40.1-22.6,46.9-14.3,64.4-16.6c3-0.4,5.8-2,9.7-3.8c3.8-1.8,8.5-4.2,13.4-7
					c9.8-5.6,20.8-12.7,30.1-19.9L654.7,298.7z"/>
			</g>
			<g id="g607" transform="translate(44.657, 185.225)">
				<path id="path609" class="st1" d="M630.7,306.2c-9.2,7.1-15.3,12.9-19.9,16.6c-4.6,3.8-7.5,4.8-8.6,4.8
					c-51.4,0.2-80.6,25.8-102,42.9c-10.7,8.6-19.2,14.6-26.8,15.6c-7.6,1-15.7-2.2-27.4-15.6l-7.5,6.4c12.7,14.6,24.6,20.2,36,18.8
					c11.4-1.5,20.8-9,31.7-17.7c21.7-17.4,47.8-40.6,96.1-40.8c5.4,0,9.6-2.9,14.5-7c4.9-4.1,11-9.8,19.9-16.6L630.7,306.2z"/>
			</g>
			<g id="g622" transform="translate(46.338, 185.15)">
				<path id="path624" class="st1" d="M666.6,305.2c-3.9,5.2-17.1,14.9-29.5,22.5c-6.2,3.8-12.3,7.2-17.2,9.7
					c-2.4,1.3-4.8,2.5-6.4,3.2c-1.6,0.7-3,0.6-2.7,0.5c-5.6,0.7-13.8-3.3-26.3-5.4c-12.5-2.1-29.3-1.2-50.5,10.7
					c-13.6,7.7-24.3,18-35.4,25.2c-11.1,7.2-21.9,11.3-36,9.1l-1.6,9.7c16.9,2.6,30.9-2.9,42.9-10.7c12-7.8,22.5-17.7,34.9-24.7
					c19.6-11,33.2-11.5,44-9.7c10.9,1.8,19.4,6.7,29.5,5.4c1.9-0.3,2.9-0.8,4.8-1.6c2-0.8,4.4-1.9,7-3.2c5.2-2.7,11.3-6.3,17.7-10.2
					c12.8-7.9,26.1-16.5,32.2-24.7L666.6,305.2z"/>
			</g>
			<g id="g639" transform="translate(50.489, 188.513)">
				<path id="path641" class="st1" d="M592.7,350.1l-6.4,7.5c20.5,16.8,25.2,33.1,22,50.5c-3.2,17.3-15.1,36.2-29.5,54.2
					c-14.5,18-31.1,35.3-43.5,51.5c-6.2,8.1-11.4,16-14.5,23.6c-3.1,7.6-4.3,15.3-1.6,22.5c8.7,24,29.9,40.2,56.4,49.9
					c26.5,9.8,58.7,13.4,91.3,12.3c32.5-1.1,65-7.2,92.9-16.6c27.8-9.5,50.9-22.1,63.3-38.6l-8.1-5.9
					c-10.4,13.9-31.7,26.3-58.5,35.4c-26.8,9.1-58.6,15.1-90.2,16.1c-31.6,1-62.7-2.7-87.5-11.8c-24.8-9.1-43-23.5-50.5-44
					c-1.6-4.4-0.9-9.8,1.6-16.1c2.5-6.3,7-13.2,12.9-20.9c11.8-15.5,28.6-33.1,43.5-51.5c14.8-18.5,28-38.2,31.7-58.5
					C621.6,389.4,615.2,368.5,592.7,350.1z"/>
			</g>
			<g id="g654" transform="translate(55.195, 165.718)">
				<path id="path656" class="st1" d="M584.8,45.5l-5.4,8.6c12.7,8.5,24.8,23.2,32.2,39.7c7.4,16.5,9.7,34,5.4,46.7l9.1,3.2
					c5.6-16.2,2.1-35.7-5.9-53.7C612.2,72.1,599.5,55.4,584.8,45.5z"/>
			</g>
			<g id="g673" transform="translate(45.666, 197.594)">
				<path id="path675" class="st1" d="M901.3,471.5c-68.5,78-140.6,107.3-215.2,108.4c-74.6,1.1-152.1-26.3-229.7-64.4l-4.3,8.6
					c78.2,38.4,156.9,66.6,234,65.5c77.1-1.1,152.9-32,222.8-111.6L901.3,471.5z"/>
			</g>
			<g id="g684" transform="translate(51.471, 189.073)">
				<path id="path686" class="st1" d="M611,357.6l-9.1,1.6c10.1,59.2-5,90.7-23.1,113.3c-9,11.3-18.8,20.4-27.4,29
					c-8.6,8.6-15.9,17.2-18.3,27.9c-3.6,22,5.1,39.7,23.6,51c18.5,11.3,45.8,17.4,82.7,20.4c42.8,3.5,90-2.2,159.4-29l-3.2-9.1
					c-68.5,26.5-113.7,31.8-155.1,28.5c-36.1-2.9-62.9-9-78.9-18.8c-16-9.8-21.9-22.2-18.8-41.3c1.6-7.5,7.3-14.3,15.6-22.5
					c8.2-8.2,18.2-17.5,27.9-29.5C605.7,454.8,621.5,419,611,357.6z"/>
			</g>
			<g id="g695" transform="translate(53.153, 176.075)">
				<path id="path697" class="st1" d="M574.8,183.9c-12.4,0-22.7,10.3-22.7,22.7s10.3,22.4,22.7,22.4s22.7-10,22.7-22.4
					S587.2,183.9,574.8,183.9z M574.8,193.6c7.2,0,12.8,5.9,12.8,13c0,7.2-5.6,12.8-12.8,12.8c-7.2,0-12.8-5.6-12.8-12.8
					C562,199.4,567.6,193.6,574.8,193.6z"/>
			</g>
			<g id="g714" transform="translate(42.675, 211.936)">
				<path id="path716" class="st1" d="M457.7,663.3c-0.8,0.1-1.2,0.4-1.6,0.5c-0.7,0.3-1.1,0.7-1.6,1.1c-1,0.7-1.9,1.4-3.2,2.7
					c-2.6,2.5-6.1,6.5-9.7,11.3c-7.1,9.5-15,22.9-19.9,40.3c-9.7,34.7-5.9,84,43.5,136.9l7-7c-47.6-51-49.7-95.3-40.8-127.2
					c4.4-16,11.8-28.9,18.3-37.6c3.2-4.3,5.9-7.6,8.1-9.7c1.1-1,2.3-1.3,2.7-1.6c0.2-0.2,0.3-0.7,0-0.5c-0.1,0.1-0.5,0.4-1.1,0.5
					c-0.3,0-0.5,0.1-1.1,0c-0.3,0-1.1-0.5-1.1-0.5c0,0-1.1-0.5-1.1-0.5l5.4-7.5c0,0-1.1-0.5-1.1-0.5c0,0-0.8-0.5-1.1-0.5
					C458.7,663.2,458.1,663.2,457.7,663.3z"/>
			</g>
			<g id="g733" transform="translate(38.491, 165.718)">
				<path id="path735" class="st1" d="M571.9,45.5c-5,116.8-100.7,211.6-215.8,244.8l2.7,9.1c118.4-34.1,217.6-131.5,222.8-253.4
					L571.9,45.5z"/>
			</g>
			<g id="g748" transform="translate(54.485, 164.672)">
				<path id="path750" class="st1" d="M575.3,31.5l-5.4,8.1c11.8,7.9,25.3,30.6,33.8,54.2c8.6,23.7,11.9,48.7,7.5,60.1l9.1,3.8
					c6.4-16.6,1.5-42.3-7.5-67.1C603.9,65.8,590.9,42,575.3,31.5z"/>
			</g>
			<g id="g763" transform="translate(55.158, 165.606)">
				<path id="path765" class="st1" d="M580,44l-1.1,9.7c21.4,1.9,35.3,18.3,42.4,38.6c7.1,20.4,6.5,44.3,0,58.5l8.6,4.3
					c8.1-17.6,8.4-43.4,0.5-66C622.6,66.5,605.9,46.3,580,44z"/>
			</g>
			<g id="g778" transform="translate(54.672, 164.036)">
				<path id="path780" class="st1" d="M577.8,23l-5.4,7.5c21.1,15,34,38.7,39.7,62.8c5.7,24.1,3.9,48.4-2.7,62.8l8.6,4.3
					c8-17.4,9.3-43.4,3.2-69.2C615.1,65.4,601.3,39.7,577.8,23z"/>
			</g>
			<g id="g789" transform="translate(50.795, 189.672)">
				<path id="path791" class="st1" d="M620.3,365.6l-9.7,1.1c6.8,63.4-11.7,93.7-33.3,113.8c-10.8,10-22.4,17.3-32.2,24.7
					c-9.8,7.4-18.5,15.2-20.9,26.3c-3.6,22.3,6.5,40.9,26.3,53.1c19.8,12.2,49,19,85.9,22c21.7,1.8,54.2,0.6,87.5-8.1
					c33.3-8.6,67.2-24.3,90.7-51.5l-7-6.4c-21.7,25.1-53.9,40-85.9,48.3c-32,8.3-63.8,9.7-84.3,8.1c-36-2.9-64-9.6-81.6-20.4
					c-17.4-10.7-24.8-24.4-22-42.9c0-0.2,0-0.3,0-0.5c1.7-7.1,8-12.9,17.2-19.9c9.3-7,21.1-15,32.7-25.8
					C607,465.9,627.3,431.3,620.3,365.6z"/>
			</g>
			<g id="g802" transform="translate(53.028, 176.204)">
				<path id="path804" class="st1" d="M574.6,187.5c-8.2-1.8-17.6,0.1-24.2,6.4l7,7c8.3-8,21.5-5.2,27.4,6.4c0,3.5,0,6.8,0,7
					c-0.5,0.4-2.2,1.3-4.3,2.1c-2.3,0.9-5.9,0.1-8.1-1.6c-2.2-1.7-3.1-3.1-1.6-7l-9.1-3.8c-2.8,7.4-0.1,14.5,4.8,18.3
					s11.7,5.1,17.7,2.7c2.4-1,4.2-1.5,5.9-2.7c1.7-1.2,3.1-3.4,3.8-5.4c1.3-3.9,0.5-6.7,0.5-11.3v-1.1v-0.5
					C590.4,195.3,582.8,189.3,574.6,187.5z"/>
			</g>
			<g id="g817" transform="translate(51.792, 186.906)">
				<path id="path819" class="st1" d="M606.4,328.7l-8.1,4.8c19.4,31.1,24.8,56.9,22.5,78.9c-2.3,22-12.6,40.5-25.2,56.4
					C583,484.6,568,497.9,556,509c-6,5.6-11.2,10.6-15,15.6c-3.9,5-7,10.3-6.4,16.1c2.8,28.5,19.6,48.6,42.9,60.7
					c23.3,12.1,53.5,16.5,83.7,15.6c30.3-1,60.9-7.9,86.4-18.8c25.5-10.9,46.1-25.9,54.7-45.1l-9.1-3.8
					c-7.1,15.6-25.2,29.9-49.4,40.3c-24.2,10.3-54.1,16.8-83.2,17.7c-29.1,0.9-57.2-4.1-78.4-15c-21.2-11-35.6-27.4-38.1-52.6
					c-0.2-1.8,1.1-5,4.3-9.1c3.2-4.1,8-9,14-14.5c11.8-11,27.4-24.6,40.8-41.3c13.4-16.7,24.9-36.8,27.4-61.2
					C633.1,389.1,626.7,361.2,606.4,328.7z"/>
			</g>
			<g id="g832" transform="translate(72.31, 201.442)">
				<path id="path834" class="st1" d="M809.7,522.9l-1.6,9.7c22.2,3.4,41.7,19.1,49.9,45.6c8.2,26.5,5.3,63.9-19.3,109l8.6,4.8
					c25.6-46.8,29.6-86.9,20.4-116.5S835.6,526.8,809.7,522.9z"/>
			</g>
			<g id="g847" transform="translate(73.805, 200.209)">
				<path id="path849" class="st1" d="M835.6,506.4l-7.5,5.9c0,0,77.7,98.6,10.2,200.7l8.1,5.4C917.3,611,835.6,506.4,835.6,506.4z"
					/>
			</g>
			<g id="g866" transform="translate(72.684, 202.487)">
				<path id="path868" class="st1" d="M813.6,536.9l-0.5,9.7c0.9,0.4,2.6,0.9,4.3,1.6c3.4,1.5,8.2,4,13.4,7
					c10.5,5.9,22.7,14.7,31.7,26.3c8.9,11.6,14.4,25.5,11.3,42.9c-3.2,17.4-14.9,38.8-42.4,63.9l6.4,7.5c28.5-26,42-48.9,45.6-69.2
					c3.7-20.3-2.8-37.8-12.9-51c-10.1-13.2-23.7-22.7-34.9-29c-5.6-3.2-10.8-5.4-14.5-7c-1.9-0.8-3.2-1.7-4.3-2.1
					c-0.6-0.2-1.2,0.1-1.6,0c-0.2-0.1-0.3-0.5-0.5-0.5c-0.1,0-0.4,0-0.5,0C814,536.9,813.7,536.9,813.6,536.9z"/>
			</g>
		</g>
		<g>
			<g id="g1784" transform="translate(96.948, 238.439)">
				<path id="path1786" class="st1" d="M1148.4,1017.3c0,0,7.6,0,13,5.4c0,0,5.3,5.4,5.3,13.1c0,0,0,7.6-5.4,13.2
					c0,0-5.4,5.5-12.9,5.5c0,0-7.6,0-13.2-5.5c0,0-5.5-5.5-5.5-13.2c0,0,0-7.6,5.5-13.1C1135.3,1022.8,1140.8,1017.3,1148.4,1017.3z
					"/>
			</g>
			<g id="g1792" transform="translate(75.118, 238.439)">
				<path id="path1794" class="st1" d="M856.7,1017.3c0,0,7.6,0,13,5.4c0,0,5.3,5.4,5.3,13.1c0,0,0,7.6-5.4,13.2
					c0,0-5.4,5.5-12.9,5.5c0,0-7.6,0-13.2-5.5c0,0-5.5-5.5-5.5-13.2c0,0,0-7.6,5.5-13.1C843.5,1022.8,849.1,1017.3,856.7,1017.3z"/>
			</g>
			<g id="g1800" transform="translate(46.175, 238.439)">
				<path id="path1802" class="st1" d="M469.9,1017.3c0,0,7.6,0,13,5.4c0,0,5.3,5.4,5.3,13.1c0,0,0,7.6-5.4,13.2
					c0,0-5.4,5.5-12.9,5.5c0,0-7.6,0-13.2-5.5c0,0-5.5-5.5-5.5-13.2c0,0,0-7.6,5.5-13.1C456.7,1022.8,462.3,1017.3,469.9,1017.3z"/>
			</g>
			<g id="g1808" transform="translate(31.152, 238.439)">
				<path id="path1810" class="st1" d="M269.2,1017.3c0,0,7.6,0,13,5.4c0,0,5.3,5.4,5.3,13.1c0,0,0,7.6-5.4,13.2
					c0,0-5.4,5.5-12.9,5.5c0,0-7.6,0-13.2-5.5c0,0-5.5-5.5-5.5-13.2c0,0,0-7.6,5.5-13.1C256,1022.8,261.5,1017.3,269.2,1017.3z"/>
			</g>
			<g>
				<path class="st1" d="M230.3,1159.9v53.1h-19l-4.8-32.1l-4.8-5.2H149v194.8l5.9,4.8l23.1,1.7v14.1h-90V1377l23.1-1.7l5.9-4.8
					v-194.8H64.2l-4.8,5.2l-4.8,32.1h-19v-53.1H230.3z"/>
			</g>
			<g>
				<path class="st1" d="M364.4,1377l22.1-1.7l5.5-4.8v-189.9l-5.5-4.8l-22.1-2.1v-13.8H452v13.8l-22.1,2.1l-5.9,4.8v189.9l5.9,4.8
					l22.1,1.7v14.1h-87.6V1377z"/>
			</g>
			<g>
				<path class="st1" d="M585.1,1377l20.7-2.7l6.2-6.6v-187.2l-4.5-4.8l-22.8-2.1v-13.8h73.1v9.3l64.8,173.1l65.5-171.7v-10.7H862
					v13.8l-21.7,2.1l-4.1,4.8v189.9l4.1,4.8l21.7,1.7v14.1h-82.4V1377l22.8-1.7l3.5-4.8v-194.4l-81.7,215.1h-14.8l-78.6-211.7v188.2
					l6.6,6.6l20.7,2.7v14.1h-72.7V1377z"/>
			</g>
			<g>
				<path class="st1" d="M999.4,1377l19.7-1.7l5.9-4.8v-189.9l-5.9-4.8l-19.7-2.1v-13.8h165.1v50.3h-19.3l-4.8-29.3l-4.8-5.2h-79.6
					v87.2h56.5l4.8-4.8l3.5-25.2h16.2v75.8h-16.2l-3.5-24.8l-4.8-5.2h-56.5v96.5h92.4l4.8-5.9l5.8-34.5h17.9v56.2H999.4V1377z"/>
			</g>
			<g>
				<path class="st1" d="M1313.1,1325.4h20.3l4.1,39.6l4.5,5.9c5.3,2.3,11.2,4.3,17.7,5.9c6.6,1.6,13.4,2.4,20.5,2.4
					c7.4,0,14.5-1,21.5-2.9c7-1.9,12.9-5.1,17.7-9.5c4.1-3.9,7.4-8.6,9.8-14c2.4-5.4,3.6-11,3.6-16.7c0-3.5-0.5-6.8-1.4-10.2
					c-0.9-3.3-2.3-6.5-4.1-9.5c-3.2-4.8-8.1-9.1-14.7-12.9c-6.6-3.8-13.4-7.3-20.5-10.5c-5.1-2.1-10.1-4-15-5.9
					c-5-1.8-9.3-3.6-12.9-5.2c-11.3-4.8-21.7-11.4-31.2-19.7s-14.9-19.1-16-32.4c0-0.5-0.1-0.9-0.2-1.4c-0.1-0.4-0.2-1-0.2-1.7
					c0-0.4,0-0.9,0-1.4s0-0.9,0-1.4c0-10.4,2.3-20.2,7.1-29.5c4.7-9.3,11.3-17,19.8-22.9c7.8-5.3,16.2-9,25.2-11.2
					c9-2.2,18-3.3,27.2-3.3c2.5,0,5,0.1,7.6,0.2c2.5,0.1,5,0.3,7.6,0.5c7.6,0.9,15.1,2.2,22.6,3.8c7.5,1.6,14.5,3.4,21.2,5.5v53.4
					h-17.9l-5.2-32.8c-4.1-4.6-9.4-8-15.7-10.2c-6.3-2.2-12.8-3.3-19.5-3.3c-0.9,0-1.8,0-2.6,0c-0.8,0-1.6,0.1-2.2,0.3
					c-3.5,0.2-6.8,0.7-10,1.4c-3.2,0.7-6.3,1.6-9.3,2.7c-7.4,3-13.2,8-17.4,15c-4.3,7-6.4,14.5-6.4,22.6c0,9.2,2.9,16.7,8.8,22.6
					c5.9,5.9,12.7,10.6,20.5,14.3c2.8,1.4,5.6,2.7,8.6,4c3,1.3,6,2.5,9,3.6c2.1,0.7,4.1,1.4,6.2,2.2c2.1,0.8,4.1,1.7,6.2,2.6
					c11.5,4.6,22.4,10.2,32.6,16.7c10.2,6.6,17.3,16,21.2,28.4c0.9,2.8,1.6,5.5,1.9,8.3c0.4,2.7,0.5,5.6,0.5,8.6
					c0,9.2-1.9,18.1-5.7,26.5c-3.8,8.5-9.3,15.8-16.4,21.7c-9.2,7.4-19.8,12.6-31.9,15.9c-12.1,3.2-24.5,4.8-37.4,4.8
					c-0.9,0-1.8,0-2.6,0s-1.7,0-2.6,0c-9.7-0.2-19.2-1.3-28.6-3.1c-9.4-1.8-18.2-4.4-26.2-7.6V1325.4z"/>
			</g>
		</g>
	</g>
</g>
</svg>
